<svg xmlns="http://www.w3.org/2000/svg" viewBox="0 0 512 512">
  <rect width="512" height="512" rx="112" fill="#87ceeb"/>
  <circle cx="256" cy="286" r="150" fill="#2f8f3a"/>
  <circle cx="176" cy="218" r="42" fill="#ffd54f"/>
  <circle cx="336" cy="218" r="42" fill="#ffd54f"/>
  <path d="M151 312c34 58 176 58 210 0" fill="none" stroke="#fff8d8" stroke-width="34" stroke-linecap="round"/>
  <path d="M120 330c52 78 220 78 272 0v42c-66 72-206 72-272 0z" fill="#1f6f30"/>
  <path d="M88 170c38-54 92-80 168-80s130 26 168 80" fill="none" stroke="#165b28" stroke-width="34" stroke-linecap="round"/>
  <circle cx="256" cy="256" r="36" fill="#ffffff"/>
  <path d="M244 246h24v76h-24z" fill="#165b28"/>
  <path d="M218 278h76v24h-76z" fill="#165b28"/>
</svg>
